<svg xmlns="http://www.w3.org/2000/svg" style="display: none;"><symbol id="trekking" viewBox="0 0 512 512"><title>trekking</title><g> <g> <path d="M166.526,247.467v17.067c0,9.412-7.654,17.067-17.067,17.067h-25.6c-9.412,0-17.067-7.654-17.067-17.067v-128 c0-9.412,7.654-17.067,17.067-17.067h25.6c7.006,0,13.295,4.292,15.855,10.761l1.314,7.74l16.828-2.859l-1.451-8.533 c-0.085-0.486-0.205-0.956-0.367-1.417c-4.804-13.619-17.741-22.758-32.179-22.758h-0.009h-25.6 c-18.825,0-34.133,15.309-34.133,34.133v128c0,18.825,15.309,34.133,34.133,34.133h25.6c18.825,0,34.133-15.309,34.142-34.133 v-17.067H166.526z"/> </g> </g><g> <g> <path d="M136.651,25.6c-25.882,0-46.933,21.052-46.933,46.933s21.052,46.933,46.933,46.933s46.933-21.052,46.933-46.933 S162.533,25.6,136.651,25.6z M136.651,102.4c-16.469,0-29.867-13.397-29.867-29.867c0-16.469,13.397-29.867,29.867-29.867 c16.469,0,29.867,13.397,29.867,29.867C166.518,89.003,153.12,102.4,136.651,102.4z"/> </g> </g><g> <g> <path d="M98.251,179.2H79.478c-13.175,0-23.893,10.718-23.893,23.893v37.547c0,13.175,10.718,23.893,23.893,23.893h18.773 c4.71,0,8.533-3.814,8.533-8.533v-68.267C106.784,183.023,102.961,179.2,98.251,179.2z M89.718,247.467h-10.24 c-3.763,0-6.827-3.063-6.827-6.827v-37.547c0-3.763,3.063-6.827,6.827-6.827h10.24V247.467z"/> </g> </g><g> <g> <path d="M243.318,102.4h-34.133v17.067h34.133c14.114,0,25.6,11.486,25.6,25.6v145.067h-85.333V230.4h-17.067v68.267 c0,4.719,3.823,8.533,8.533,8.533h102.4c4.719,0,8.533-3.814,8.533-8.533v-153.6C285.984,121.54,266.844,102.4,243.318,102.4z"/> </g> </g><g> <g> <path d="M276.052,31.889l-16.469,4.489c0.555,2.031,0.828,4.122,0.811,6.289V76.8c0,14.114-11.486,25.6-25.6,25.6 c-14.114,0-25.6-11.486-25.6-25.6V42.59c-0.017-2.108,0.256-4.19,0.802-6.204l-16.461-4.514 c-0.973,3.533-1.451,7.194-1.417,10.795V76.8c0,23.526,19.14,42.667,42.667,42.667c23.526,0,42.667-19.14,42.675-42.667V42.743 C277.494,39.083,277.016,35.43,276.052,31.889z"/> </g> </g><g> <g> <path d="M285.984,0h-59.733c-18.825,0-34.133,15.309-34.133,34.133v34.133c0,3.447,2.082,6.562,5.265,7.885 c1.058,0.435,2.167,0.648,3.268,0.648c2.219,0,4.403-0.87,6.033-2.5l31.633-31.633h22.067c18.825,0,34.133-15.309,34.133-34.133 C294.518,3.823,290.703,0,285.984,0z M260.384,25.6h-25.6c-2.261,0-4.429,0.896-6.033,2.5l-19.567,19.567V34.133 c0-9.412,7.654-17.067,17.067-17.067h48.905C272.212,22.161,266.691,25.6,260.384,25.6z"/> </g> </g><g> <g> <path d="M361.88,448.444l-76.8-153.6l-15.266,7.637l72.986,145.963l-19.243,9.617l-68.105-120.747 c-4.241-7.953-12.493-12.954-21.606-13.047c-13.602,0-24.661,11.059-24.661,24.661v37.837 c-0.06,10.308-6.238,19.524-15.761,23.501L119.38,441.31l-9.506-19.004l68.642-30.507c3.081-1.374,5.069-4.42,5.069-7.799v-85.333 h-17.067v79.795l-71.731,31.872c-2.125,0.947-3.78,2.722-4.565,4.915c-0.785,2.193-0.64,4.617,0.401,6.699l17.067,34.133 c2.005,4.019,6.767,5.777,10.931,4.053l81.391-34.125c15.846-6.613,26.146-21.973,26.24-39.194v-37.888 c0-4.19,3.405-7.595,7.509-7.595c2.79,0.026,5.325,1.562,6.733,4.19l72.192,128c1.57,2.765,4.446,4.343,7.441,4.343 c1.289,0,2.586-0.29,3.806-0.905l34.133-17.067C362.281,457.788,363.988,452.659,361.88,448.444z"/> </g> </g><g> <g> <path d="M136.165,474.991l-30.293-60.672c-1.007-2.022-2.782-3.567-4.932-4.284c-2.15-0.734-4.497-0.555-6.519,0.461 l-34.133,17.067c-2.022,1.015-3.558,2.79-4.275,4.932c-0.717,2.15-0.546,4.506,0.469,6.528l29.44,58.778 C90.281,506.556,99.053,512,108.832,512h4.437c9.779,0,18.569-5.453,22.903-14.216 C139.723,490.65,139.723,482.133,136.165,474.991z M120.907,490.197c-1.451,2.918-4.378,4.736-7.637,4.736h-4.437 c-3.251,0-6.178-1.818-7.629-4.736c0-0.009-0.008-0.017-0.008-0.034l-25.617-51.149l18.859-9.438l26.47,53.026 C122.093,484.983,122.093,487.817,120.907,490.197z"/> </g> </g><g> <g> <path d="M404.538,448.427c-6.827-13.577-23.432-19.123-37.043-12.331l-51.2,25.6c-4.215,2.108-5.922,7.236-3.814,11.452 l17.067,34.133c1.502,2.995,4.514,4.719,7.646,4.719c1.289,0,2.586-0.29,3.806-0.905l51.2-25.6c0,0,0.009-0.009,0.017-0.009 C405.784,478.669,411.322,462.063,404.538,448.427z M384.561,470.229l-43.563,21.786l-9.429-18.867l43.546-21.777 c5.197-2.594,11.563-0.469,14.157,4.693C391.857,461.261,389.741,467.61,384.561,470.229z"/> </g> </g><g> <g> <path d="M136.651,59.733c-7.057,0-12.8,5.743-12.8,12.8s5.743,12.8,12.8,12.8s12.8-5.743,12.8-12.8S143.708,59.733,136.651,59.733 z M136.651,76.8c-2.355,0-4.267-1.911-4.267-4.267c0-2.355,1.911-4.267,4.267-4.267c2.355,0,4.267,1.911,4.267,4.267 C140.918,74.889,139.006,76.8,136.651,76.8z"/> </g> </g><g> <g> <path d="M401.449,159.224c-0.87-1.152-1.818-2.236-2.833-3.251c-5.589-5.555-12.988-8.602-20.864-8.602c-0.034,0-0.068,0-0.111,0 c-7.902,0.026-15.334,3.132-20.881,8.721l-36.062,36.062l-36.685-44.023l-13.116,10.923l42.667,51.2 c1.544,1.843,3.78,2.953,6.178,3.063c2.381,0.094,4.727-0.794,6.417-2.492l42.692-42.684c2.355-2.372,5.495-3.695,8.858-3.703 c0.008,0,0.026,0,0.043,0c3.328,0,6.477,1.289,8.832,3.635c0.435,0.435,0.853,0.905,1.212,1.391 c3.738,5.001,3.243,12.092-1.169,16.503l-42.197,42.197c-6.758,6.844-16.137,10.769-25.779,10.769c-0.034,0-0.026,0-0.102,0 c-12.194,0-23.484-6.067-30.285-16.307l-3.755-5.547l-14.131,9.574l3.712,5.47C283.996,247.083,300.602,256,318.522,256 c0.085,0,0.094,0,0.137,0c14.165,0,27.981-5.777,37.88-15.812l42.155-42.155C409.061,187.657,410.247,170.974,401.449,159.224z"/> </g> </g><g> <g> <path d="M259.07,233.626c-1.596-7.791-6.127-14.498-12.484-18.697l-47.582-34.219l38.511-23.509 c0.102-0.051,0.196-0.119,0.29-0.179c0.529-0.35,1.041-0.717,1.562-1.118c6.289-4.838,10.308-11.836,11.332-19.703 c1.016-7.868-1.084-15.659-5.845-21.845c-9.472-12.706-27.238-15.753-40.192-7.083l-62.848,39.219 c-11.273,7.518-17.988,20.105-17.963,33.621c-0.017,13.56,6.69,26.138,17.775,33.528l71.697,50.731 c5.077,3.405,10.837,5.035,16.538,5.035c9.097,0,18.048-4.156,23.859-11.964c0.367-0.486,0.708-0.964,1.015-1.434 C259.121,249.37,260.666,241.417,259.07,233.626z M240.067,247.228c-4.045,5.427-11.631,6.733-17.075,3.089l-71.706-50.739 c-6.502-4.344-10.385-11.597-10.368-19.456c-0.017-7.825,3.857-15.078,10.146-19.285l62.865-39.228 c2.159-1.442,4.608-2.142,7.04-2.142c3.9,0,7.757,1.801,10.291,5.205c2.057,2.671,2.953,5.99,2.517,9.336 c-0.435,3.336-2.142,6.315-4.796,8.354l-49.843,30.49c-2.449,1.493-3.977,4.105-4.087,6.963c-0.102,2.859,1.229,5.581,3.55,7.253 l58.308,41.924c2.833,1.869,4.77,4.736,5.453,8.064C243.036,240.384,242.379,243.772,240.067,247.228z"/> </g> </g><g> <g> <rect x="195.137" y="163.949" transform="matrix(0.4834 -0.8754 0.8754 0.4834 -36.1333 283.7344)" width="54.392" height="17.067"/> </g> </g><g> <g> <rect x="164.493" y="247.474" transform="matrix(0.4472 -0.8944 0.8944 0.4472 -127.5029 305.7093)" width="38.16" height="17.066"/> </g> </g><g> <g> <rect x="98.251" y="247.467" width="76.8" height="17.067"/> </g> </g><g> <g> <rect x="396.923" y="131.639" transform="matrix(0.974 -0.2265 0.2265 0.974 -61.9461 100.1539)" width="17.058" height="376.743"/> </g> </g><g> <g> <rect x="132.384" y="102.4" width="93.867" height="17.067"/> </g> </g></symbol><symbol id="mountain" viewBox="0 0 512 512"><title>mountain</title><g> <g> <rect x="247.467" y="8.533" width="17.067" height="93.867"/> </g> </g><g> <g> <path d="M311.014,26.496l-51.2-25.6c-2.645-1.314-5.786-1.178-8.303,0.375c-2.509,1.562-4.045,4.301-4.045,7.262v51.2 c0,2.953,1.536,5.7,4.045,7.262c1.374,0.845,2.927,1.271,4.489,1.271c1.306,0,2.611-0.299,3.814-0.896l51.2-25.6 c2.893-1.451,4.719-4.403,4.719-7.637S313.907,27.947,311.014,26.496z M264.533,45.926V22.34l23.586,11.793L264.533,45.926z"/> </g> </g><g> <g> <path d="M348.425,148.864c-1.613-2.441-4.42-4.105-7.296-3.797c-2.927,0.068-5.606,1.63-7.117,4.139l-18.5,30.831l-52.318-82.219 c-1.527-2.406-4.156-3.883-7.006-3.951c-3.285-0.068-5.555,1.306-7.185,3.644l-59.733,85.333l13.986,9.779l52.403-74.863 l52.872,83.081c1.579,2.492,4.233,3.874,7.305,3.951c2.961-0.043,5.683-1.604,7.211-4.139l18.671-31.104l43.716,65.579 l14.191-9.464L348.425,148.864z"/> </g> </g><g> <g> <path d="M177.408,148.352c-1.621-2.074-4.105-3.294-6.741-3.294c-0.017,0-0.026,0-0.034,0c-2.654,0.017-5.146,1.254-6.75,3.354 L52.949,293.478l13.559,10.368l104.218-136.286l52.941,68.07l13.474-10.479L177.408,148.352z"/> </g> </g><g> <g> <path d="M330.94,498.133L262.673,412.8c-1.519-1.894-3.78-3.046-6.195-3.183c-2.423-0.137-4.796,0.768-6.511,2.483L207.3,454.767 l12.066,12.066l35.925-35.925l51.217,64.026H17.067V301.508l17.357-23.142l69.905,85.436l13.21-10.803l-76.8-93.867 c-1.664-2.031-4.233-3.2-6.784-3.132c-2.628,0.051-5.077,1.314-6.648,3.413l-25.6,34.133C0.597,295.023,0,296.815,0,298.667v204.8 C0,508.186,3.823,512,8.533,512h315.733c3.285,0,6.263-1.886,7.697-4.83C333.38,504.209,332.988,500.702,330.94,498.133z"/> </g> </g><g> <g> <path d="M417.229,192.444c-1.34-2.68-3.977-4.463-6.963-4.693c-2.987-0.222-5.871,1.109-7.612,3.55l-42.667,59.733l13.884,9.916 l34.432-48.196l70.46,140.928l15.266-7.637L417.229,192.444z"/> </g> </g><g> <g> <path d="M146.825,326.81c-1.647-1.963-3.925-2.901-6.639-3.055c-2.56,0.034-4.966,1.212-6.571,3.208L78.66,395.742l13.338,10.65 l48.435-60.621l15.147,18.099l13.09-10.948L146.825,326.81z"/> </g> </g><g> <g> <path d="M506.735,324.915c-3.191-1.323-6.852-0.589-9.301,1.852l-45.798,45.798l-36.702-29.363 c-3.388-2.714-8.286-2.449-11.366,0.631l-25.6,25.6l12.066,12.066l20.198-20.198l36.702,29.363 c3.379,2.705,8.286,2.449,11.366-0.631l36.634-36.634v141.534H324.267V512h179.2c4.719,0,8.533-3.823,8.533-8.533V332.8 C512,329.344,509.926,326.229,506.735,324.915z"/> </g> </g><g> <g> <rect x="59.733" y="443.733" width="17.067" height="25.6"/> </g> </g><g> <g> <path d="M101.965,432.504l-25.6-76.8c-1.161-3.49-4.42-5.837-8.098-5.837s-6.929,2.347-8.098,5.837l-25.6,76.8 c-0.862,2.594-0.427,5.461,1.178,7.689c1.604,2.227,4.181,3.541,6.921,3.541h51.2c2.739,0,5.316-1.323,6.921-3.541 C102.392,437.973,102.835,435.106,101.965,432.504z M54.502,426.667l13.764-41.284l13.764,41.284H54.502z"/> </g> </g><g> <g> <rect x="170.667" y="392.533" width="17.067" height="25.6"/> </g> </g><g> <g> <path d="M212.898,381.303l-25.6-76.8c-1.161-3.49-4.42-5.837-8.098-5.837s-6.929,2.347-8.098,5.837l-25.6,76.8 c-0.862,2.594-0.427,5.461,1.178,7.689c1.604,2.227,4.181,3.541,6.921,3.541h51.2c2.739,0,5.316-1.323,6.921-3.541 C213.325,386.773,213.769,383.906,212.898,381.303z M165.436,375.467l13.764-41.284l13.764,41.284H165.436z"/> </g> </g><g> <g> <rect x="196.283" y="374.585" transform="matrix(0.7593 -0.6508 0.6508 0.7593 -220.0666 232.9336)" width="17.067" height="78.68"/> </g> </g><g> <g> <path d="M161.698,500.77l-25.6-76.8c-1.161-3.49-4.42-5.837-8.098-5.837c-3.678,0-6.929,2.347-8.098,5.837l-25.6,76.8 c-0.862,2.594-0.427,5.461,1.178,7.689c1.604,2.227,4.181,3.541,6.921,3.541h51.2c2.739,0,5.316-1.323,6.921-3.541 C162.125,506.24,162.569,503.373,161.698,500.77z M114.236,494.933L128,453.649l13.764,41.284H114.236z"/> </g> </g><g> <g> <rect x="366.933" y="435.2" width="17.067" height="25.6"/> </g> </g><g> <g> <path d="M409.156,423.97l-25.6-76.8c-1.152-3.49-4.412-5.837-8.09-5.837s-6.929,2.347-8.098,5.837l-25.6,76.8 c-0.87,2.594-0.435,5.461,1.169,7.689c1.613,2.227,4.19,3.541,6.929,3.541h51.2c2.739,0,5.316-1.323,6.921-3.541 C409.592,429.44,410.035,426.573,409.156,423.97z M361.711,418.133l13.756-41.284l13.764,41.284H361.711z"/> </g> </g><g> <g> <rect x="267.001" y="414.937" transform="matrix(0.7353 -0.6777 0.6777 0.7353 -201.739 330.3825)" width="110.213" height="17.066"/> </g> </g><g> <g> <rect x="443.733" y="469.333" width="17.067" height="25.6"/> </g> </g><g> <g> <path d="M485.956,458.103l-25.6-76.8c-1.152-3.49-4.412-5.837-8.09-5.837c-3.678,0-6.929,2.347-8.098,5.837l-25.6,76.8 c-0.87,2.594-0.435,5.461,1.169,7.689c1.613,2.227,4.19,3.541,6.929,3.541h51.2c2.739,0,5.316-1.323,6.921-3.541 S486.835,460.706,485.956,458.103z M438.511,452.267l13.756-41.284l13.764,41.284H438.511z"/> </g> </g><g> <g> <path d="M254.02,199.339c-3.243-3.891-9.865-3.891-13.107,0l-42.667,51.2l13.107,10.931l36.113-43.341l36.105,43.332 l13.116-10.923L254.02,199.339z"/> </g> </g></symbol><symbol id="map" viewBox="0 0 512.003 512.003"><title>map</title><g> <g> <path d="M508.605,1.724c-2.142-1.613-4.915-2.125-7.484-1.391l-89.6,25.6l4.685,16.41l78.729-22.494v443.051l-111.01,31.718 L258.203,461.09c-1.451-0.384-2.961-0.384-4.403,0l-125.722,33.527l-111.01-31.718V19.849l108.587,31.019 c1.493,0.435,3.063,0.435,4.548,0.043l125.798-33.544l74.598,19.9l4.403-16.495l-76.8-20.48c-1.451-0.384-2.961-0.384-4.403,0 L128.078,33.818L10.882,0.333C8.313-0.401,5.54,0.111,3.398,1.724c-2.142,1.613-3.396,4.13-3.396,6.81v460.8 c0,3.806,2.526,7.159,6.187,8.209l119.467,34.133c1.493,0.427,3.063,0.435,4.548,0.034l125.798-33.545L381.8,511.71 c0.725,0.188,1.459,0.29,2.202,0.29c0.794,0,1.579-0.111,2.338-0.324l119.467-34.133c3.669-1.05,6.195-4.403,6.195-8.209V8.533 C512.002,5.854,510.747,3.337,508.605,1.724z"/> </g> </g><g> <g> <path d="M107.863,256c-10.743,0-21.146,3.149-30.08,9.114c-12.032,8.03-20.224,20.275-23.057,34.466 c-2.833,14.2,0.034,28.655,8.064,40.687l37.973,57.003c1.579,2.372,4.25,3.797,7.1,3.797c2.859,0,5.521-1.425,7.1-3.797 l37.973-57.003c5.956-8.934,9.114-19.337,9.114-30.08C162.05,280.311,137.738,256,107.863,256z M138.737,330.803l-30.874,46.345 l-30.874-46.345c-5.504-8.252-7.475-18.15-5.53-27.878c1.937-9.728,7.552-18.108,15.795-23.612 c6.127-4.087,13.252-6.246,20.608-6.246c20.471,0,37.12,16.649,37.12,37.12C144.983,317.542,142.824,324.668,138.737,330.803z"/> </g> </g><g> <g> <circle cx="107.863" cy="307.2" r="17.067"/> </g> </g><g> <g> <path d="M375.468,0c-10.752,0-21.146,3.157-30.071,9.114c-24.849,16.589-31.582,50.295-15.002,75.145l37.973,57.003 c1.587,2.381,4.25,3.806,7.1,3.806c2.85,0,5.521-1.425,7.108-3.806l37.973-56.994c5.965-8.934,9.114-19.337,9.114-30.08 C429.655,24.311,405.344,0,375.468,0z M406.342,74.795l-30.874,46.345l-30.874-46.353c-11.358-17.024-6.75-40.115,10.274-51.482 c6.118-4.079,13.235-6.238,20.599-6.238c20.471,0,37.12,16.657,37.12,37.112C412.588,61.534,410.429,68.659,406.342,74.795z"/> </g> </g><g> <g> <circle cx="375.468" cy="51.2" r="17.067"/> </g> </g><g> <g> <path d="M435.202,213.333h-25.6c-14.114,0-25.6-11.486-25.6-25.6v-25.6h-17.067v25.6c0,23.526,19.14,42.667,42.667,42.667h25.6 c14.114,0,25.6,11.486,25.6,25.6s-11.486,25.6-25.6,25.6h-179.2c-23.526,0-42.667,19.14-42.667,42.667 c0,23.526,19.14,42.667,42.667,42.667h85.333c14.114,0,25.6,11.486,25.6,25.6c0,14.114-11.486,25.6-25.6,25.6H102.402V435.2 h238.933c23.526,0,42.667-19.14,42.667-42.667c0-23.526-19.14-42.667-42.667-42.667h-85.333c-14.114,0-25.6-11.486-25.6-25.6 s11.486-25.6,25.6-25.6h179.2c23.526,0,42.667-19.14,42.667-42.667C477.868,232.474,458.728,213.333,435.202,213.333z"/> </g> </g><g> <g> <path d="M458.301,147.567L441.235,130.5c-3.337-3.336-8.73-3.336-12.066,0l-17.067,17.067c-1.604,1.596-2.5,3.772-2.5,6.033v25.6 c0,4.71,3.814,8.533,8.533,8.533h34.133c4.719,0,8.533-3.823,8.533-8.533v-25.6C460.802,151.339,459.906,149.163,458.301,147.567z M443.735,170.667h-17.067v-13.534l8.533-8.533l8.533,8.533V170.667z"/> </g> </g><g> <g> <path d="M315.291,125.303l-17.067-51.2c-1.152-3.49-4.412-5.837-8.09-5.837s-6.929,2.347-8.098,5.828l-17.067,51.2 c-0.87,2.603-0.435,5.461,1.169,7.689c1.613,2.236,4.19,3.55,6.929,3.55h34.133c2.739,0,5.316-1.314,6.921-3.541 S316.17,127.906,315.291,125.303z M284.913,119.467l5.222-15.684l5.231,15.684H284.913z"/> </g> </g><g> <g> <rect x="281.602" y="128" width="17.067" height="25.6"/> </g> </g><g> <g> <path d="M460.358,406.903l-17.067-51.2c-1.152-3.49-4.412-5.837-8.09-5.837s-6.929,2.347-8.098,5.837l-17.067,51.2 c-0.87,2.594-0.435,5.461,1.169,7.689c1.613,2.227,4.19,3.541,6.929,3.541h34.133c2.739,0,5.316-1.314,6.921-3.541 C460.793,412.373,461.237,409.506,460.358,406.903z M429.979,401.067l5.222-15.684l5.231,15.684H429.979z"/> </g> </g><g> <g> <rect x="426.668" y="409.6" width="17.067" height="25.6"/> </g> </g><g> <g> <path d="M143.362,148.48c-3.217-4.301-10.436-4.301-13.653,0l-25.6,34.133l13.653,10.24l18.773-25.028l18.773,25.028l13.653-10.24 L143.362,148.48z"/> </g> </g><g> <g> <path d="M100.695,131.413c-1.664-2.21-4.344-3.507-7.066-3.405c-2.765,0.077-5.325,1.493-6.861,3.797l-34.133,51.2l14.199,9.464 l27.443-41.165l18.364,24.482l13.653-10.24L100.695,131.413z"/> </g> </g><g> <g> <path d="M279.101,215.834l-17.067-17.067c-3.337-3.337-8.73-3.337-12.066,0l-17.067,17.067c-1.604,1.596-2.5,3.772-2.5,6.033v25.6 c0,4.71,3.823,8.533,8.533,8.533h34.133c4.719,0,8.533-3.823,8.533-8.533v-25.6C281.602,219.605,280.706,217.429,279.101,215.834z M264.535,238.933h-17.067v-13.534l8.533-8.533l8.533,8.533V238.933z"/> </g> </g><g> <g> <path d="M247.033,125.303l-17.067-51.2c-1.161-3.49-4.42-5.837-8.098-5.837s-6.929,2.347-8.098,5.828l-17.067,51.2 c-0.862,2.603-0.427,5.461,1.178,7.689c1.604,2.236,4.181,3.55,6.921,3.55h34.133c2.739,0,5.316-1.314,6.921-3.541 S247.904,127.906,247.033,125.303z M216.637,119.467l5.231-15.684l5.231,15.684H216.637z"/> </g> </g><g> <g> <rect x="213.335" y="128" width="17.067" height="25.6"/> </g> </g></symbol><symbol id="timer" viewBox="0 -48 512 512"><title>timer</title><path d="m418.382812 230.8125c0-8.285156 6.714844-15 15-15h14.636719c-6.8125-55.421875-50.871093-99.476562-106.292969-106.292969v14.636719c0 8.285156-6.714843 15-15 15-8.28125 0-15-6.714844-15-15v-14.636719c-55.417968 6.816407-99.472656 50.871094-106.289062 106.292969h14.636719c8.285156 0 15 6.714844 15 15 0 8.28125-6.714844 15-15 15h-14.636719c6.8125 55.417969 50.871094 99.472656 106.289062 106.289062v-14.636718c0-8.285156 6.71875-15 15-15 8.285157 0 15 6.714844 15 15v14.636718c55.421876-6.8125 99.476563-50.871093 106.292969-106.289062h-14.636719c-8.285156 0-15-6.71875-15-15zm-48.804687 42.847656c-2.929687 2.929688-6.769531 4.394532-10.605469 4.394532-3.839844 0-7.679687-1.464844-10.609375-4.394532l-32.242187-32.242187c-2.8125-2.8125-4.390625-6.628907-4.390625-10.605469v-39.601562c0-8.285157 6.714843-15 15-15 8.28125 0 15 6.714843 15 15v33.386718l27.847656 27.847656c5.859375 5.859376 5.859375 15.355469 0 21.214844zm0 0"/><path d="m341.730469 46.148438v-16.148438h3.230469c8.285156 0 15-6.714844 15-15s-6.714844-15-15-15h-36.464844c-8.28125 0-15 6.714844-15 15s6.71875 15 15 15h3.230468v16.148438c-95.167968 7.664062-170.269531 87.554687-170.269531 184.660156 0 102.160156 83.113281 185.273437 185.269531 185.273437 102.160157 0 185.273438-83.113281 185.273438-185.269531 0-97.109375-75.101562-177-170.269531-184.664062zm-15 336.871093c-83.929688 0-152.210938-68.28125-152.210938-152.210937 0-83.929688 68.28125-152.210938 152.210938-152.210938 83.929687 0 152.210937 68.285156 152.210937 152.214844 0 83.925781-68.285156 152.207031-152.210937 152.207031zm0 0"/><path d="m98.816406 170.476562h-55.878906c-8.28125 0-15-6.71875-15-15 0-8.285156 6.71875-15 15-15h55.878906c8.285156 0 15 6.714844 15 15 0 8.28125-6.714844 15-15 15zm0 0"/><path d="m98.816406 232.5625h-83.816406c-8.285156 0-15-6.714844-15-15s6.714844-15 15-15h83.816406c8.285156 0 15 6.714844 15 15s-6.714844 15-15 15zm0 0"/><path d="m98.816406 294.648438h-55.878906c-8.28125 0-15-6.714844-15-15 0-8.285157 6.71875-15 15-15h55.878906c8.285156 0 15 6.714843 15 15 0 8.285156-6.714844 15-15 15zm0 0"/></symbol><symbol id="right-arrow" viewBox="0 0 492.004 492.004"><title>right-arrow</title><path d="M484.14,226.886L306.46,49.202c-5.072-5.072-11.832-7.856-19.04-7.856c-7.216,0-13.972,2.788-19.044,7.856l-16.132,16.136 c-5.068,5.064-7.86,11.828-7.86,19.04c0,7.208,2.792,14.2,7.86,19.264L355.9,207.526H26.58C11.732,207.526,0,219.15,0,234.002 v22.812c0,14.852,11.732,27.648,26.58,27.648h330.496L252.248,388.926c-5.068,5.072-7.86,11.652-7.86,18.864 c0,7.204,2.792,13.88,7.86,18.948l16.132,16.084c5.072,5.072,11.828,7.836,19.044,7.836c7.208,0,13.968-2.8,19.04-7.872 l177.68-177.68c5.084-5.088,7.88-11.88,7.86-19.1C492.02,238.762,489.228,231.966,484.14,226.886z"/></symbol><symbol id="github" viewBox="0 0 24 24"><title>github</title><path d="m12 .5c-6.63 0-12 5.28-12 11.792 0 5.211 3.438 9.63 8.205 11.188.6.111.82-.254.82-.567 0-.28-.01-1.022-.015-2.005-3.338.711-4.042-1.582-4.042-1.582-.546-1.361-1.335-1.725-1.335-1.725-1.087-.731.084-.716.084-.716 1.205.082 1.838 1.215 1.838 1.215 1.07 1.803 2.809 1.282 3.495.981.108-.763.417-1.282.76-1.577-2.665-.295-5.466-1.309-5.466-5.827 0-1.287.465-2.339 1.235-3.164-.135-.298-.54-1.497.105-3.121 0 0 1.005-.316 3.3 1.209.96-.262 1.98-.392 3-.398 1.02.006 2.04.136 3 .398 2.28-1.525 3.285-1.209 3.285-1.209.645 1.624.24 2.823.12 3.121.765.825 1.23 1.877 1.23 3.164 0 4.53-2.805 5.527-5.475 5.817.42.354.81 1.077.81 2.182 0 1.578-.015 2.846-.015 3.229 0 .309.21.678.825.56 4.801-1.548 8.236-5.97 8.236-11.173 0-6.512-5.373-11.792-12-11.792z"/></symbol><symbol id="coworking" viewBox="0 0 512 512"><title>coworking</title><path d="M472,280c-10.285,0-18.285,6.957-21.023,9.688L413.785,312H384a8,8,0,0,0-8,8v16H358.777l-6.886-41.316a8,8,0,0,0-15.782,2.632L342.557,336h-23.62l-5.832-40.836a24,24,0,0,0-13.027-18.07l-24.5-12.25A8,8,0,0,0,272,264H240a8,8,0,0,0-3.578.844l-24.5,12.25A24,24,0,0,0,198.9,295.168L193.063,336h-23.62l6.448-38.684a8,8,0,1,0-15.782-2.632L153.223,336H136V320a8,8,0,0,0-8-8H98.215L61.023,289.688C58.285,286.957,50.285,280,40,280a24.027,24.027,0,0,0-24,24v96a8,8,0,0,0,5.469,7.59l2.531.844V464H16v16H496V464h-8V392.7l3.152-1.351A8,8,0,0,0,496,384V304A24.027,24.027,0,0,0,472,280ZM400,430.873,418.4,464H400ZM400,352h24a8,8,0,0,0,3.578-.844L448,340.945v14.621l-48,30ZM214.73,297.438a8.014,8.014,0,0,1,4.348-6.032L241.887,280h28.226l22.813,11.406a8.018,8.018,0,0,1,4.344,6.028L302.777,336H288V304a8,8,0,0,0-8-8H232a8,8,0,0,0-8,8v32H209.223ZM272,336H240V312h32Zm112,16v16H128V352Zm-80,33.371V384h48v80H281.062l6.536-52.285,9.371-9.371A23.841,23.841,0,0,0,304,385.371Zm-88.969,16.973,9.371,9.371L230.938,464H160V384h48v1.371A23.841,23.841,0,0,0,215.031,402.344ZM112,417.49,103.664,389.7a8.006,8.006,0,0,0-3.547-4.562L64,363.469V340.945l20.422,10.211A8,8,0,0,0,88,352h24Zm-72-3.724,25.469,8.488L77.4,464H40ZM94.035,464,79.691,413.8a8,8,0,0,0-5.16-5.391L32,394.234V304a8.011,8.011,0,0,1,8-8c4.188,0,8.793,3.98,10.039,5.336a7.912,7.912,0,0,0,1.844,1.523l40,24A8.014,8.014,0,0,0,96,328h24v8H89.887L59.578,320.844A8,8,0,0,0,48,328v40a8,8,0,0,0,3.883,6.859l37.344,22.407L109.246,464ZM128,464V384h16v80Zm119.062,0-7.125-56.992a7.98,7.98,0,0,0-2.281-4.664l-11.312-11.313a7.951,7.951,0,0,1-2.344-5.66V384h64v1.371a7.951,7.951,0,0,1-2.344,5.66l-11.312,11.313a7.987,7.987,0,0,0-2.282,4.664L264.937,464ZM368,464V384h16v80Zm68.707,0-34.023-61.242,57.554-35.973A8.006,8.006,0,0,0,464,360V328a8,8,0,0,0-11.578-7.156L422.113,336H392v-8h24a8.014,8.014,0,0,0,4.117-1.141l40-24a7.912,7.912,0,0,0,1.844-1.523C462.969,300.211,467.633,296,472,296a8.011,8.011,0,0,1,8,8v74.727l-51.152,21.921a8,8,0,0,0-4.61,9.293L437.754,464ZM472,464H454.247l-12.833-51.332L472,399.56Z"/><path d="M280,134.629V160a8,8,0,0,0,12.437,6.656L320.4,148.011A23.986,23.986,0,0,0,344,168h29.578l45.984,30.656A8,8,0,0,0,432,192V166.629A24.041,24.041,0,0,0,448,144V96a24.027,24.027,0,0,0-24-24H392V64a24.027,24.027,0,0,0-24-24H288a24.027,24.027,0,0,0-24,24v48A24.04,24.04,0,0,0,280,134.629ZM424,88a8.011,8.011,0,0,1,8,8v48a8.011,8.011,0,0,1-8,8,8,8,0,0,0-8,8v17.051l-35.563-23.707A8.005,8.005,0,0,0,376,152H344a8.011,8.011,0,0,1-8-8v-6.385L338.422,136H368a24.027,24.027,0,0,0,24-24V88Zm-88,32V96a8.011,8.011,0,0,1,8-8h32v24a8.011,8.011,0,0,1-8,8ZM280,64a8.011,8.011,0,0,1,8-8h80a8.011,8.011,0,0,1,8,8v8H344a24.027,24.027,0,0,0-24,24v33.052l-24,16V128a8,8,0,0,0-8-8,8.011,8.011,0,0,1-8-8Z"/><path d="M56,160v24a8,8,0,0,0,12.438,6.656L114.422,160H152a24.027,24.027,0,0,0,24-24V88a24.027,24.027,0,0,0-24-24H56A24.027,24.027,0,0,0,32,88v48A24.027,24.027,0,0,0,56,160ZM48,88a8.011,8.011,0,0,1,8-8h96a8.011,8.011,0,0,1,8,8v48a8.011,8.011,0,0,1-8,8H112a8.011,8.011,0,0,0-4.438,1.344L72,169.051V152a8,8,0,0,0-8-8H56a8.011,8.011,0,0,1-8-8Z"/><rect x="64" y="104" width="16" height="16"/><rect x="96" y="104" width="16" height="16"/><rect x="128" y="104" width="16" height="16"/><path d="M256,256a32,32,0,1,0-32-32A32.036,32.036,0,0,0,256,256Zm0-48a16,16,0,1,1-16,16A16.016,16.016,0,0,1,256,208Z"/><path d="M432,240a32,32,0,1,0,32-32A32.036,32.036,0,0,0,432,240Zm32-16a16,16,0,1,1-16,16A16.016,16.016,0,0,1,464,224Z"/><path d="M48,272a32,32,0,1,0-32-32A32.036,32.036,0,0,0,48,272Zm0-48a16,16,0,1,1-16,16A16.016,16.016,0,0,1,48,224Z"/></symbol><symbol id="manager" viewBox="-35 1 511 511.999"><title>manager</title><path d="m271.050781 180c5.519531 0 10-4.480469 10-10s-4.480469-10-10-10c-5.53125 0-10 4.480469-10 10s4.46875 10 10 10zm0 0"/><path d="m171.050781 180c5.519531 0 10-4.480469 10-10s-4.480469-10-10-10c-5.53125 0-10 4.480469-10 10s4.46875 10 10 10zm0 0"/><path d="m194.316406 248.734375c8.394532 3.957031 17.390625 5.964844 26.730469 5.964844 9.136719 0 17.957031-1.925781 26.21875-5.722657 5.019531-2.308593 7.214844-8.246093 4.910156-13.265624-2.308593-5.015626-8.246093-7.214844-13.265625-4.90625-5.621094 2.582031-11.632812 3.894531-17.863281 3.894531-6.371094 0-12.496094-1.363281-18.203125-4.054688-4.996094-2.355469-10.957031-.214843-13.308594 4.78125-2.355468 4.996094-.214844 10.953125 4.78125 13.308594zm0 0"/><path d="m441.589844 405.769531c0-54.988281-62.625-98.113281-116.304688-100.15625l-27.386718-24.605469c33.355468-24.335937 53.601562-63.445312 53.601562-105.007812v-66c0-60.652344-49.503906-110-110.351562-110h-40c-60.765626 0-109.648438 49.171875-109.648438 110v66c0 41.492188 19.976562 80.527344 52.898438 104.820312l-27.59375 24.792969c-53.5625 2.039063-116.304688 45.054688-116.304688 100.15625v96.230469c0 5.523438 4.476562 10 10 10h421.089844c5.523437 0 10-4.476562 10-10zm-242.695313 40.230469h44.246094l10.484375 46h-65.519531zm45.105469-20h-45.738281l-7.671875-23.902344 30.460937-15.230468 31.113281 15.5625zm-22.953125-69.179688-34.75-55.589843c11.285156 3.136719 23.011719 4.765625 34.851563 4.765625 11.726562 0 23.367187-1.597656 34.59375-4.683594zm14.3125 14.84375 48.011719-76.824218 25.894531 23.265625-32.949219 74.042969zm-34.210937-351.664062h40c49.820312 0 90.351562 40.371094 90.351562 90v8.265625l-18.777344-27.039063c-1.699218-2.449218-4.40625-4.011718-7.378906-4.261718-2.976562-.25-5.898438.839844-7.984375 2.972656-20.328125 20.789062-43.863281 30.0625-76.308594 30.0625-32.441406 0-55.980469-9.273438-76.324219-30.0625-2.09375-2.144531-5.042968-3.230469-8.023437-2.96875-2.984375.261719-5.695313 1.847656-7.382813 4.324219l-17.820312 26.113281v-7.40625c0-49.628906 40.214844-90 89.648438-90zm-89.648438 156v-23.113281l27.773438-40.699219c22.25 18.925781 48.542968 27.8125 81.777343 27.8125 33.269531 0 59.582031-8.90625 81.835938-27.871094l28.613281 41.203125v22.667969c0 59.886719-48.949219 110-110.351562 110-61.203126 0-109.648438-49.957031-109.648438-110zm47.21875 118.84375 48.019531 76.820312-40.964843 20.484376-32.949219-74.042969zm-138.21875 110.925781c0-41.195312 50.078125-76.765625 93.839844-80l37.414062 84.066407c1.109375 2.492187 3.191406 4.425781 5.761719 5.347656s5.402344.75 7.847656-.46875l7.125-3.566406 8.113281 25.265624-13.039062 55.585938h-147.0625zm401.089844 86.230469h-147.453125l-12.632813-55.433594 8.699219-25.117187 6.523437 3.265625c2.460938 1.230468 5.300782 1.382812 7.847657.46875 2.570312-.921875 4.652343-2.855469 5.761719-5.347656l37.414062-84.066407c43.761719 3.238281 93.839844 38.804688 93.839844 80zm0 0"/><path d="m351.050781 446h-40c-5.523437 0-10 4.476562-10 10s4.476563 10 10 10h40c5.523438 0 10-4.476562 10-10s-4.476562-10-10-10zm0 0"/><path d="m390.5 446c5.519531 0 10 4.480469 10 10s-4.480469 10-10 10-10-4.480469-10-10 4.480469-10 10-10zm0 0"/></symbol></svg>